<svg width="150" height="50" viewBox="0 0 150 50" fill="none" xmlns="http://www.w3.org/2000/svg">
<g clip-path="url(#clip0_2065_1370)">
<path d="M121.473 19.7074C118.343 18.1747 116.066 15.3054 114.938 12.0392C114.672 11.2604 114.405 10.3602 114.184 9.56411C114.055 9.10779 113.864 8.38362 114.315 8.08602C114.598 7.9025 115.04 7.9769 115.372 8.04634C115.895 8.1629 116.475 8.25218 117.019 8.34642C118.849 8.65395 120.587 9.28139 122.184 10.2436C123.147 10.8438 124.141 11.5382 124.937 12.3517C126.272 13.8273 127.335 15.5757 128.042 17.4332C128.27 17.8176 128.965 21.2772 129.533 19.8041C129.746 18.9981 129.798 18.1351 130.016 17.334C130.361 15.8286 130.793 14.358 131.038 12.8204C131.184 11.8755 131.152 10.9306 131.477 10.0105C132.509 6.54345 134.081 4.31887 137.171 2.38445C138.803 1.41229 140.529 0.524438 142.404 0.0953948C143.709 -0.241888 143.642 0.338437 143.56 1.46933C143.475 4.03367 142.92 6.61289 141.601 8.81515C139.961 11.5506 137.28 13.5892 134.289 14.6407C132.851 15.0127 134.141 13.1502 134.354 12.5873C135.15 10.9604 136.1 9.46739 137.134 7.95458C137.288 7.73634 138.126 6.50129 137.439 6.84601C134.594 9.08795 132.831 12.4112 131.728 15.8014C131.202 17.4382 130.902 19.132 130.763 20.8408C130.649 21.6691 130.614 22.4255 130.631 23.2786C130.659 24.4095 130.594 25.523 130.502 26.649C130.359 27.8493 130.785 29.7589 129.384 30.3095C128.866 30.4087 129.086 29.4539 129.114 29.124C129.31 27.2144 129.228 25.213 128.623 23.358C128.181 21.6741 127.065 21.5029 125.567 21.1656C124.144 20.8755 122.797 20.3348 121.488 19.7124L121.473 19.7049V19.7074Z" fill="#9BBC8F"/>
<path d="M134.641 36.849L133.944 37.7616C133.093 38.7735 132.193 39.7134 131.228 40.6161L130.288 41.4965C130.179 41.6007 129.946 41.7222 129.795 41.7495C129.462 41.8065 129.157 41.6453 128.914 41.4395C127.801 40.4971 126.779 39.4877 125.884 38.3345L125.611 37.9848L125.437 37.7591C125.125 37.3549 124.847 36.9407 124.572 36.5092L124.354 36.167L124.086 35.723L123.863 35.3039C123.741 35.0758 123.654 34.8401 123.56 34.5996C123.327 33.9945 123.23 33.3943 123.297 32.752C123.394 31.822 123.905 30.944 124.793 30.5894C125.762 30.2 126.811 30.3067 127.682 30.8597C128.346 31.2838 128.944 31.946 129.281 32.6577C129.321 32.742 129.363 32.8388 129.43 32.8413C129.564 32.8437 129.614 32.7817 129.638 32.6677C129.75 32.1518 130.015 31.7128 130.33 31.3036C130.539 31.0333 130.747 30.7853 131.035 30.5869L131.402 30.3364L131.749 30.1331C132.198 29.8702 133.004 29.7164 133.559 29.6991C133.78 29.6916 134.013 29.7214 134.229 29.7412C134.819 29.7933 135.328 30.0016 135.816 30.3216C136.597 30.8349 136.836 31.7798 136.615 32.6949L136.488 33.2157C136.082 34.5301 135.444 35.7206 134.636 36.849H134.641Z" fill="#F18EA0"/>
<path d="M72.0989 30.5476C71.0597 31.4082 70.1049 32.3679 69.5519 33.546L66.8363 39.3244C66.7048 39.6022 66.2733 39.9742 66.0303 39.994C65.7872 40.0138 65.5045 39.2426 65.5343 38.9722L66.0526 34.1436C63.8058 36.3509 62.0797 38.7019 59.1954 39.6914C57.7198 40.1974 56.3683 38.3349 56.1153 36.8543C54.6596 39.002 52.9856 41.8218 51.2595 40.8918C50.8081 40.6487 50.1831 39.7212 50.1682 39.1136L49.9872 30.3393C49.1391 30.1235 48.4596 30.7559 48.0479 31.5024L42.9986 39.8105L42.2422 39.7386C41.1486 39.6344 42.2149 32.0951 42.5894 28.7099L38.0982 26.9913C40.2533 31.2693 38.5967 39.0144 35.5934 38.5531C33.6095 38.2481 32.9026 35.5498 32.4637 33.8287C30.4648 35.8573 28.7809 37.7793 26.5936 39.1954C25.3585 39.994 23.3671 39.803 22.8165 38.3002C21.0855 33.5832 23.8656 27.207 27.097 28.0354C27.7095 28.1916 28.4609 29.5407 28.1435 30.0962C28.0096 30.3343 27.3424 30.0268 27.1589 29.8086L26.5663 29.0894C25.6288 27.956 21.9138 35.1803 24.1632 38.0993C25.1353 39.3591 28.0592 36.951 29.9564 34.9422C30.6929 34.161 31.9528 33.169 32.2231 32.2043C32.6571 30.6667 32.987 29.3671 33.6219 28.018L34.7576 25.6C38.0635 24.7964 40.04 27.3682 43.7476 27.579L43.1375 37.2387L46.8774 31.5198C47.5941 30.4236 48.6233 29.0323 50.1137 28.9902C50.7238 29.0001 51.3463 30.4831 51.3711 31.0883L51.3785 38.9673L51.8695 39.7931C52.2167 40.3784 55.5028 37.6529 56.4625 32.6854C56.9387 30.2252 59.0069 27.6187 60.5396 27.9461C61.4522 28.142 62.2359 29.5506 62.102 29.7441L61.7846 30.2054C61.668 30.3765 61.2514 30.0218 61.1001 29.8582L60.4503 29.1662C59.6344 28.2958 56.1104 33.4815 57.8959 38.1662C60.5173 39.193 64.0166 34.9298 66.189 32.2985L68.0391 12.9123C68.0614 12.6816 68.1829 12.2352 68.2524 12.0616C68.3441 11.831 69.16 12.074 69.3014 12.2253L68.2226 24.9452L67.1884 35.4382L69.9809 30.9122C70.3133 30.374 71.3425 29.7094 72.017 29.2059C72.756 29.3646 73.4206 30.3393 73.5297 31.1056L74.4746 37.819C74.8888 40.7579 78.5642 37.4644 80.4762 31.7901C81.0863 29.9797 82.1675 28.4421 83.9085 27.579C84.6848 27.1946 85.9173 27.46 86.4158 28.0453C86.9143 28.6306 87.1027 29.883 86.6712 30.5799C85.5057 32.4622 83.6332 33.102 81.4211 33.3724C81.3119 34.4611 81.2971 35.9268 81.6591 36.8717C82.9116 40.1527 88.3997 37.5313 91.3262 32.8937C93.0746 30.1235 95.2891 26.7284 97.8312 27.145C98.8157 27.3062 100.033 28.6033 100.145 30.0789C100.165 30.3318 99.3589 30.126 99.2299 29.9127C98.9397 29.4291 98.471 28.6678 98.042 28.4892C95.6934 27.5121 91.7478 33.5484 92.3256 35.7681C92.3901 36.0136 93.0795 35.8772 93.4317 35.835C97.4046 33.5757 100.681 30.4435 103.329 26.7085L104.277 26.3589C104.473 26.2869 104.944 26.8003 104.862 26.9937C104.359 28.1643 102.625 28.829 102.278 31.5818L101.68 36.3261C104.257 35.1009 106.253 33.8312 108.349 32.2787C108.904 30.3765 109.802 28.8736 111.516 27.7725C115.31 27.8915 115.846 34.4189 113.292 38.1191C112.448 39.3393 110.576 39.9915 109.505 38.7763C108.369 37.4892 108.064 35.5325 108.066 33.8262L101.608 37.509L100.138 44.4283C99.6912 46.5289 98.9224 49.0163 96.7474 49.8918C95.7306 50.301 94.6915 48.6022 94.4956 47.6796C94.0641 43.3916 96.0108 39.4955 99.7879 37.3553C100.041 37.018 100.549 36.1698 100.577 35.7234L100.832 31.6115C97.0177 35.0563 91.6163 39.9444 91.0236 35.3043L87.8393 37.9257C86.1405 39.3244 83.5464 40.0634 81.5748 38.7838C80.6919 38.2109 80.2232 36.6212 79.9107 35.592C78.3757 37.9654 76.5479 40.7529 74.6358 40.0734C74.1001 39.8824 73.4355 38.9301 73.3289 38.2431L72.1187 30.5526L72.0989 30.5476ZM35.9059 26.8747C34.0732 28.2536 33.7285 30.4732 33.8004 32.6432C33.8599 34.4388 33.9914 36.5989 35.8488 37.4148C38.5396 35.8623 38.7008 27.7526 35.9034 26.8747H35.9059ZM85.709 29.8879C85.8405 29.625 85.7264 28.7372 85.4833 28.6554C83.9755 28.142 82.3412 30.126 81.6864 32.2663C83.296 32.1423 84.9377 31.433 85.7115 29.8879H85.709ZM113.545 31.0783C113.388 30.2922 112.696 29.2729 112.052 28.943C109.229 30.307 108.681 35.7036 110.345 37.8885C111.578 39.5079 114.415 35.4605 113.547 31.0783H113.545ZM96.7945 48.689C98.3619 46.8413 98.9224 44.7978 99.2721 42.6848L99.9937 38.3398C93.4119 42.7468 95.5818 50.1175 96.7945 48.689Z" fill="#FAF2D7"/>
<path d="M9.42666 37.2136C7.93369 41.8586 3.94581 52.2598 0.473785 49.5591C0.0745016 49.2491 -0.161101 48.2348 0.129062 47.7462L1.38643 48.9242C1.65923 49.1797 2.59172 48.5597 2.92652 48.329C5.33462 44.9363 6.87968 41.065 8.18665 36.8961C5.88767 36.2315 4.13429 37.4293 1.93204 38.2775C1.88244 35.9512 5.69919 35.733 8.72481 35.5743L12.1844 24.3522L14.3445 17.6437C14.4933 17.1849 15.2522 16.612 15.9218 16.674C16.1574 18.4696 16.217 20.3965 16.2963 22.2268L16.4724 26.2618L17.1073 37.5384C19.1558 37.2756 20.6091 35.1651 20.8149 36.1546C21.0406 37.2408 19.0863 38.3568 17.1445 38.6222C17.1494 41.3651 17.1445 44.0485 16.961 47.1064C16.0657 46.3252 15.8375 45.3009 15.8276 44.1675L15.7805 38.8355L9.42418 37.2111L9.42666 37.2136ZM15.8301 37.655L14.7785 20.2924L9.82842 35.9984C11.8075 36.7275 13.7419 37.216 15.8276 37.655H15.8301Z" fill="#FAF2D7"/>
<path d="M116.698 27.9683C116.666 28.0006 116.634 28.0303 116.604 28.0601C116.508 28.1543 116.401 28.2387 116.292 28.3155C116.326 28.38 116.364 28.442 116.396 28.5065C116.515 28.7421 116.619 28.9901 116.716 29.2431L122.559 34.0419C122.472 33.6054 122.45 33.1714 122.489 32.7275L116.698 27.9683Z" fill="#FAF2D7"/>
<path d="M149.712 22.7079L138.401 13.4153C138.123 13.6137 137.84 13.8021 137.548 13.9807L148.695 23.1345L148.328 23.4965L137.493 32.3973C137.476 32.5561 137.449 32.7197 137.409 32.8834L137.277 33.4315L137.27 33.4563C137.213 33.6373 137.153 33.8159 137.089 33.9945L148.455 24.6572L149.008 24.2554L149.015 30.949L149.033 32.1196L149.02 32.7247C149.015 32.9826 149.06 33.1587 149.01 33.4613L149.005 47.0171L135.97 36.3083C135.804 36.5836 135.626 36.8564 135.435 37.1317L147.951 47.4139C147.976 47.4337 148.038 47.4858 148.023 47.4957L147.894 47.5602H111.465L124.059 37.2086C124.002 37.1218 123.947 37.035 123.888 36.9432L123.66 36.5861L123.531 36.3703L110.568 47.0344V41.8859C110.228 41.8586 109.898 41.7966 109.583 41.6974V48.0587C109.583 48.3067 109.816 48.5472 110.059 48.5472H149.519C149.799 48.4877 149.985 48.334 149.985 48.0636V23.189C149.985 22.9881 149.861 22.8294 149.71 22.7054L149.712 22.7079Z" fill="#FAF2D7"/>
<path d="M129.795 7.61478L131.067 8.65887C131.186 8.32902 131.312 8.0091 131.446 7.70158L130.216 6.69221C130.048 6.55333 129.777 6.35989 129.562 6.53845L124.388 10.7868C124.646 10.9876 124.902 11.2034 125.15 11.4316L129.795 7.61726V7.61478Z" fill="#FAF2D7"/>
<path d="M114.722 19.9923L117.465 17.7404C117.239 17.5048 117.021 17.2618 116.813 17.0089L113.926 19.3798C114.229 19.5261 114.499 19.7344 114.722 19.9923Z" fill="#FAF2D7"/>
<path d="M114.013 25.8627L112.736 23.3926L109.557 26.3289C109.14 25.2898 109.745 24.8459 110.296 24.2705L112.848 21.6119L115.308 25.8602C115.377 25.7932 115.01 26.1528 114.879 26.2818C114.748 26.4108 114.098 26.0264 114.013 25.8627Z" fill="#FAF2D7"/>
</g>
<defs>
<clipPath id="clip0_2065_1370">
<rect width="149.984" height="50" fill="white"/>
</clipPath>
</defs>
</svg>
